<svg width="26" height="31" viewBox="0 0 26 31" fill="none" xmlns="http://www.w3.org/2000/svg">
<path d="M18.2308 30V24.6625C18.2769 24.0049 18.1976 23.3437 17.9982 22.7231C17.7987 22.1024 17.4836 21.5365 17.0738 21.0628C20.9385 20.5801 25 18.9389 25 11.4085C24.9997 9.48289 24.3387 7.63115 23.1538 6.23651C23.7149 4.55183 23.6752 2.68971 23.0431 1.03695C23.0431 1.03695 21.5908 0.554235 18.2308 3.07816C15.4099 2.22143 12.4363 2.22143 9.61538 3.07816C6.25538 0.554235 4.80308 1.03695 4.80308 1.03695C4.17092 2.68971 4.13125 4.55183 4.69231 6.23651C3.49862 7.64149 2.83695 9.50997 2.84615 11.4499C2.84615 18.9251 6.90769 20.5663 10.7723 21.1042C10.3674 21.5731 10.0551 22.1323 9.85576 22.7453C9.65644 23.3584 9.57453 24.0116 9.61538 24.6625V30M9.61538 25.8624C3.46154 27.9312 3.46154 22.4144 1 21.7248L9.61538 25.8624Z" stroke="white" stroke-width="2" stroke-linecap="round" stroke-linejoin="round"/>
</svg>
