<svg width="35" height="35" viewBox="0 0 35 35" fill="none" xmlns="http://www.w3.org/2000/svg">
<path d="M30.6667 0C31.6833 0 32.6584 0.403868 33.3772 1.12276C34.0961 1.84165 34.5 2.81667 34.5 3.83333V30.6667C34.5 31.6833 34.0961 32.6584 33.3772 33.3772C32.6584 34.0961 31.6833 34.5 30.6667 34.5H3.83333C2.81667 34.5 1.84165 34.0961 1.12276 33.3772C0.403868 32.6584 0 31.6833 0 30.6667V3.83333C0 2.81667 0.403868 1.84165 1.12276 1.12276C1.84165 0.403868 2.81667 0 3.83333 0H30.6667ZM29.7083 29.7083V19.55C29.7083 17.8928 29.05 16.3036 27.8782 15.1318C26.7064 13.96 25.1172 13.3017 23.46 13.3017C21.8308 13.3017 19.9333 14.2983 19.0133 15.7933V13.6658H13.6658V29.7083H19.0133V20.2592C19.0133 18.7833 20.2017 17.5758 21.6775 17.5758C22.3892 17.5758 23.0717 17.8585 23.5749 18.3618C24.0781 18.865 24.3608 19.5475 24.3608 20.2592V29.7083H29.7083ZM7.43667 10.6567C8.29066 10.6567 9.10968 10.3174 9.71355 9.71355C10.3174 9.10968 10.6567 8.29066 10.6567 7.43667C10.6567 5.65417 9.21917 4.1975 7.43667 4.1975C6.57759 4.1975 5.75369 4.53877 5.14623 5.14623C4.53877 5.75369 4.1975 6.57759 4.1975 7.43667C4.1975 9.21917 5.65417 10.6567 7.43667 10.6567ZM10.1008 29.7083V13.6658H4.79167V29.7083H10.1008Z" fill="white"/>
</svg>
