<svg width="23" height="36" viewBox="0 0 23 36" fill="none" xmlns="http://www.w3.org/2000/svg">
<path d="M0 0H5.76991V6.44965C6.36827 4.76347 7.51157 3.92038 9.1998 3.92038C10.7812 3.92038 11.9779 4.41569 12.79 5.40633C13.602 6.39696 14.0081 7.75645 14.0081 9.48479V27.3162H8.39843V9.83256C8.39843 9.3267 8.28089 8.9157 8.04582 8.59954C7.81075 8.28338 7.46883 8.1253 7.02006 8.1253C6.6354 8.1253 6.32553 8.29392 6.09046 8.63116C5.87676 8.94731 5.76991 9.33724 5.76991 9.80094V27.3162H0V0Z" fill="#262626"/>
<path d="M15.3224 36.0001C10.6851 36.0001 8.36646 33.6815 8.36646 29.0445L8.39851 27.2108H14.0081L14.0402 29.9298C14.0402 30.4778 14.1471 30.8993 14.3608 31.1944C14.5745 31.4684 14.9271 31.6054 15.4186 31.6054C16.1665 31.6054 16.5405 31.0047 16.5405 29.8033C16.5405 28.9181 16.3589 28.2225 15.9956 27.7167C15.6536 27.2108 15.098 26.6733 14.3287 26.1043L11.3476 23.8279C10.3218 23.048 9.58455 22.2471 9.13578 21.4251C8.68701 20.582 8.46262 19.4017 8.46262 17.8841C8.46262 16.7038 8.77249 15.7026 9.39222 14.8806C10.0333 14.0375 10.8774 13.4052 11.9246 12.9836C12.9717 12.5621 14.1364 12.3513 15.4186 12.3513C19.9704 12.3513 22.2463 14.5855 22.2463 19.0539V19.4965H16.4443V18.6113C16.4443 18.0633 16.3482 17.5996 16.1558 17.2202C15.9849 16.8197 15.6857 16.6195 15.2583 16.6195C14.8736 16.6195 14.5745 16.7354 14.3608 16.9672C14.1684 17.178 14.0723 17.4731 14.0723 17.8525C14.0723 18.6956 14.4035 19.349 15.066 19.8127L18.5279 22.3103C19.7674 23.2167 20.7183 24.2073 21.3808 25.2822C22.0433 26.3361 22.3745 27.6745 22.3745 29.2975C22.3745 31.4474 21.7548 33.1019 20.5153 34.2612C19.2759 35.4204 17.5449 36.0001 15.3224 36.0001Z" fill="#FFCC00"/>
</svg>
